<svg id="Layer_1" data-name="Layer 1" xmlns="http://www.w3.org/2000/svg" width="200" height="41" viewBox="0 0 200 41"><defs><style>.cls-1{fill:#e2447e;}.cls-2{fill:#231f20;}</style></defs><title>zonealarm-header-logo</title><path class="cls-1" d="M34.48,14.0072s-.6779-.9825-1.2925,0L25.5016,25.9845H42.1622Z"/><path class="cls-2" d="M198.2605,5.9086h-.01a1.7447,1.7447,0,1,0,.01,0Zm-.2236,1.6921V7.0441a1.0338,1.0338,0,0,1,.1133-.0051.3166.3166,0,0,1,.35.2849c0,.1766-.1876.2768-.3457.2768Zm0,1.1633V7.9179h.1117c.1919,0,.2627.0568.2935.2353a1.4229,1.4229,0,0,0,.1457.5435l.0308.0673h.3541a1.5859,1.5859,0,0,1-.701.236,1.6444,1.6444,0,0,1-.7266-.236Zm1.0425-.2041a1.3688,1.3688,0,0,1-.1088-.4238.7027.7027,0,0,0-.1939-.44.5385.5385,0,0,0,.2453-.4639.5455.5455,0,0,0-.2125-.469,1.0793,1.0793,0,0,0-.6383-.1611,4.4406,4.4406,0,0,0-.6113.0462l-.1576.0123V8.7067a1.668,1.668,0,0,1-.4448-1.0711,1.3266,1.3266,0,0,1,1.2927-1.304h.01a1.2738,1.2738,0,0,1,1.2274,1.31,1.34,1.34,0,0,1-.3869.9573Z"/><path class="cls-2" d="M75.09,5.6281c-4.3134,0-7.81,3.8888-7.81,8.6859S70.7766,23,75.09,23s7.81-3.8888,7.81-8.686S79.4033,5.6281,75.09,5.6281Zm0,13.7c-2.1042,0-3.81-2.2449-3.81-5.0141S72.9858,9.3,75.09,9.3s3.81,2.2449,3.81,5.014S77.1942,19.3281,75.09,19.3281Z"/><polygon class="cls-2" points="84.3 22.6 84.3 6.1 88.6 6.1 94.3 15.6 94.3 6.1 98.3 6.1 98.3 22.6 93.9 22.6 88.4 13.5 88.4 22.6 84.3 22.6"/><polygon class="cls-2" points="100.5 22.6 100.5 6.1 113.1 6.1 111.7 9.6 104.443 9.6 104.443 12.1 110.966 12.1 109.474 15.638 104.4 15.638 104.4 19 113.6 19 112.4 22.6 100.5 22.6"/><polygon class="cls-2" points="115.1 22.6 123.3 1.8 127.1 1.8 135 22.6 130.7 22.6 125.3 7.5 122 16.4 126.5 16.4 127.9 20.4 120.6 20.4 119.8 22.6 115.1 22.6"/><polygon class="cls-2" points="136.3 6 140.3 6 140.3 19 147 19 145.8 22.6 136.3 22.6 136.3 6"/><path class="cls-2" d="M157.2,6h-4.3l-5.4,16.6h4l.7-2.2h5.6l.7,2.2h4.2Zm-4,11,1.8-5.8,1.8,5.8Z"/><path class="cls-2" d="M173.5756,16.038a4.7439,4.7439,0,0,0,2.9968-4.688c0-5.6154-6.4529-5.348-6.4529-5.348H163.7V22.6h4V16.698h1.81L172.7,22.6h4.6ZM170.1,13.3h-2.4v-4h2.3924s2.4048-.1,2.4048,2S170.1,13.3,170.1,13.3Z"/><polygon class="cls-2" points="178.3 22.6 180.9 6 185.1 6 188.2 15 190.9 6 195.2 6 198.5 22.6 194.2 22.6 192.7 13.9 189.9 22.6 186.6 22.6 183.6 13.9 182.3 22.6 178.3 22.6"/><path class="cls-2" d="M50.9,1.8H65s1.2115-.0571,1.2115.9526a5.3081,5.3081,0,0,1-.76,2.2419L56.3,18.1849H66.351L69.5,22.6H51.1a1.2549,1.2549,0,0,1-1.3224-1.2619,7.3893,7.3893,0,0,1,1.1707-3.0773L59.8,5.8226H50.9Z"/><path class="cls-2" d="M114.0488,32.8125a2.2577,2.2577,0,0,0,1.3457-2.1152c0-1.6807-1.1631-2.7315-3.0117-2.7315H108.502V37.94h4.0351a2.703,2.703,0,0,0,3.0117-2.8155A2.3714,2.3714,0,0,0,114.0488,32.8125Zm-4.0332-3.4873h2.24c.9668,0,1.625.5039,1.625,1.4287s-.6582,1.4287-1.625,1.4287h-2.24Zm2.3809,7.2559h-2.3809v-3.04h2.3809a1.5243,1.5243,0,1,1,0,3.04Z"/><path class="cls-2" d="M119.86,35.8379l-1.6944-5h-1.5127l2.48,6.7656L118.74,38.71c-.21.5742-.42.7558-1.0224.7558h-.3643v1.2891h.5742a1.9717,1.9717,0,0,0,1.4571-.5186,2.2946,2.2946,0,0,0,.5175-.8818l3.1387-8.5166h-1.5273Z"/><path class="cls-2" d="M130.5332,29.2266a1.9908,1.9908,0,0,1,2.0176,1.7226h1.54a3.4441,3.4441,0,0,0-3.5576-3.0674,3.4792,3.4792,0,0,0-2.5771,1.0088c-.9668.98-1.0088,1.9746-1.0088,4.0625s.042,3.0811,1.0088,4.0615a3.6594,3.6594,0,0,0,6.1347-2.0585h-1.5127a2.0282,2.0282,0,0,1-2.0449,1.7226,1.95,1.95,0,0,1-1.4707-.6162c-.5039-.5322-.6025-1.1348-.6025-3.1094s.0986-2.5781.6025-3.11A1.9533,1.9533,0,0,1,130.5332,29.2266Z"/><path class="cls-2" d="M139.0068,30.7539a2.437,2.437,0,0,0-1.8632.7979v-3.586h-1.4288V37.94h1.4288V33.6113a1.4142,1.4142,0,0,1,1.4707-1.583,1.3788,1.3788,0,0,1,1.4287,1.583V37.94h1.4287V33.4014a2.6117,2.6117,0,0,0-.7139-2.0039A2.4692,2.4692,0,0,0,139.0068,30.7539Z"/><path class="cls-2" d="M145.8125,30.7539c-1.8213,0-3.0117,1.3164-3.0117,3.6279,0,2.7032,1.415,3.6416,3.1933,3.6416a3.334,3.334,0,0,0,2.6622-1.1064l-.9112-.8545a2.1209,2.1209,0,0,1-1.7226.7285c-1.1768,0-1.8067-.7568-1.8067-1.9892h4.6084v-.6026C148.8242,32.126,147.7178,30.7539,145.8125,30.7539Zm-1.5967,3.0537a2.2049,2.2049,0,0,1,.1817-.9668,1.5534,1.5534,0,0,1,2.8154,0,2.4085,2.4085,0,0,1,.1963.9668Z"/><path class="cls-2" d="M153.292,32.0283A1.6534,1.6534,0,0,1,154.65,32.7l.9805-.9522a2.9143,2.9143,0,0,0-2.3389-.9941c-1.5977,0-3.166.9658-3.166,3.6279s1.5683,3.6416,3.166,3.6416a2.9235,2.9235,0,0,0,2.3389-1.0088l-.9805-.9384a1.6543,1.6543,0,0,1-1.3584.6728,1.6028,1.6028,0,0,1-1.3174-.6308,2.6731,2.6731,0,0,1-.42-1.7364,2.6331,2.6331,0,0,1,.42-1.7236A1.6021,1.6021,0,0,1,153.292,32.0283Z"/><polygon class="cls-2" points="162.983 30.838 161.247 30.838 158.487 34.115 158.487 27.966 157.059 27.966 157.059 37.939 158.487 37.939 158.487 35.853 159.538 34.662 161.527 37.939 163.292 37.939 160.519 33.625 162.983 30.838"/><path class="cls-2" d="M171.5967,27.9658h-3.7822V37.94h1.5126V34.0029h2.27a3.0233,3.0233,0,1,0,0-6.0371Zm-.084,4.6924h-2.1856v-3.333h2.1856a1.6692,1.6692,0,1,1,0,3.333Z"/><path class="cls-2" d="M178.7109,30.7539a2.8435,2.8435,0,0,0-2.1152.84,3.73,3.73,0,0,0-.84,2.788,3.7446,3.7446,0,0,0,.84,2.8008,2.84,2.84,0,0,0,2.1152.8408,2.8717,2.8717,0,0,0,2.1289-.8408,3.7408,3.7408,0,0,0,.8409-2.8008,3.7265,3.7265,0,0,0-.8409-2.788A2.8752,2.8752,0,0,0,178.7109,30.7539Zm1.0508,5.5742a1.4586,1.4586,0,0,1-1.0508.4209,1.4227,1.4227,0,0,1-1.0361-.4209,2.7433,2.7433,0,0,1-.49-1.9463,2.747,2.747,0,0,1,.49-1.9472,1.4116,1.4116,0,0,1,1.0361-.4063,1.4476,1.4476,0,0,1,1.0508.4063,2.747,2.747,0,0,1,.49,1.9472A2.7433,2.7433,0,0,1,179.7617,36.3281Z"/><rect class="cls-2" x="183.3457" y="27.9238" width="1.5127" height="1.5127"/><rect class="cls-2" x="183.3877" y="30.8379" width="1.4287" height="7.1016"/><path class="cls-2" d="M189.873,30.7539a2.54,2.54,0,0,0-1.8916.7979v-.7139h-1.4V37.94H188.01V33.6113a1.4142,1.4142,0,0,1,1.4707-1.583,1.3788,1.3788,0,0,1,1.4287,1.583V37.94h1.4287V33.4014a2.6117,2.6117,0,0,0-.7139-2.0039A2.4675,2.4675,0,0,0,189.873,30.7539Z"/><path class="cls-2" d="M197.002,31.9307V30.8379h-1.3731V28.8066H194.2v2.0313h-.8125v1.0928H194.2v4.0341a1.8483,1.8483,0,0,0,1.9473,1.9747h.8545V36.7207h-.5889a.7214.7214,0,0,1-.7842-.8262V31.9307Z"/><path class="cls-2" d="M44.1,33H12.8017l18.1-28.7381A2.6993,2.6993,0,0,0,28.7,0H0V8H18.7357L2.8214,33,.5531,36.5632A2.7,2.7,0,0,0,2.7,40.9h46Z"/></svg>